# Blender v2.78 (sub 0) OBJ File: ''
# www.blender.org
mtllib cultist_0.mtl
o robe_top_Cube.001
v 0.719683 2.353949 -0.074427
v 0.474200 2.474328 -0.421137
v 0.352654 2.208279 0.013929
v 0.493713 2.862720 0.088332
v 0.540486 2.172449 0.443151
v 0.350342 2.444998 0.508502
v 0.609908 2.145620 0.113164
v 0.322254 2.846485 -0.285482
v 0.676815 1.495517 -0.604085
v 0.305744 2.149435 0.311748
v 0.279605 2.243700 -0.221634
v 0.555961 2.105930 0.256577
v 0.713602 2.300437 0.081476
v 0.676815 1.495517 0.604085
v 0.909239 0.936233 0.000000
v 0.580510 2.093973 0.000048
v 0.923381 1.495517 0.000000
v 0.407614 2.060798 0.427129
v 0.398357 2.094180 -0.365007
v 0.724297 1.043127 -0.604085
v 0.724297 1.174235 0.604085
v 0.332032 2.182411 0.144852
v 0.623259 2.185310 -0.030249
v 0.707521 2.246926 0.237378
v 0.311410 2.156543 0.275776
v 0.488219 2.726853 0.332210
v 0.237100 2.474328 -0.498744
v 0.139803 2.243700 -0.246544
v 0.463994 2.263210 -0.321385
v 0.275542 2.263210 -0.372644
v 0.596941 2.414139 -0.247782
v 0.316130 2.225990 -0.103853
v 0.543627 2.224260 -0.175817
v 0.000000 2.474328 -0.576351
v -0.719683 2.353949 -0.074427
v 0.000000 2.227496 0.021367
v 0.000000 3.037436 0.118602
v 0.000000 2.243700 -0.271454
v 0.000000 2.928178 -0.375817
v -0.474200 2.474328 -0.421137
v -0.352654 2.208279 0.013929
v -0.493713 2.862720 0.088332
v -0.540486 2.172449 0.443151
v 0.000000 2.176113 0.399934
v 0.000000 2.522391 0.608904
v -0.350342 2.444998 0.508502
v -0.609908 2.145620 0.113164
v -0.322254 2.846485 -0.285482
v -0.676815 1.495517 -0.604085
v -0.305744 2.149435 0.311748
v -0.279605 2.243700 -0.221634
v -0.555961 2.105930 0.256577
v -0.713602 2.300437 0.081476
v -0.676815 1.495517 0.604085
v 0.000000 1.495517 0.721084
v 0.000000 1.495517 -0.720855
v -0.909239 0.936233 0.000000
v -0.580510 2.093973 0.000048
v -0.923381 1.495517 0.000000
v -0.407614 2.060798 0.427129
v -0.398357 2.094180 -0.365007
v 0.000000 2.080451 0.606103
v 0.000000 2.094180 -0.479616
v -0.724297 1.043127 -0.604085
v -0.724297 1.174235 0.604085
v -0.332032 2.182411 0.144852
v -0.623259 2.185310 -0.030249
v 0.000000 1.089213 -0.721084
v -0.707521 2.246926 0.237378
v 0.000000 2.182319 0.354209
v 0.000000 2.869208 0.425330
v -0.311410 2.156543 0.275776
v -0.488219 2.726853 0.332210
v -0.237100 2.474328 -0.498744
v 0.000000 2.263210 -0.423902
v -0.139803 2.243700 -0.246544
v -0.463994 2.263210 -0.321385
v -0.275542 2.263210 -0.372644
v -0.596941 2.414139 -0.247782
v -0.316130 2.225990 -0.103853
v -0.543627 2.224260 -0.175817
vn 0.3070 0.4067 -0.8604
vn 0.0299 -0.9912 -0.1289
vn 0.0234 -0.9916 -0.1275
vn 0.7912 0.4714 -0.3897
vn 0.6617 0.2066 0.7208
vn 0.6702 -0.6798 0.2980
vn -0.0240 -0.9953 -0.0939
vn -0.1285 -0.9773 -0.1682
vn 0.3071 0.9314 -0.1953
vn 0.3073 0.4211 0.8534
vn 0.1703 0.0252 0.9851
vn 0.1482 0.7774 -0.6113
vn 0.4520 0.8574 0.2459
vn -0.1386 -0.9592 -0.2464
vn 0.7995 0.4856 -0.3536
vn 0.0926 0.9817 0.1664
vn 0.2187 0.8749 0.4322
vn 0.5421 0.8205 -0.1817
vn 0.9433 0.0357 0.3299
vn 0.1700 0.0178 -0.9853
vn 0.2566 0.2938 0.9208
vn 0.8084 0.4775 0.3442
vn 0.1925 0.4036 -0.8945
vn 0.9422 0.0310 -0.3337
vn 0.1595 0.0006 -0.9872
vn 0.3247 0.8266 0.4597
vn -0.0880 -0.9822 -0.1662
vn -0.1847 -0.9434 -0.2756
vn 0.9130 0.3624 0.1874
vn 0.1626 -0.1190 0.9795
vn 0.8325 -0.5420 -0.1147
vn 0.7514 -0.6577 -0.0541
vn 0.2074 -0.5255 -0.8251
vn 0.2600 -0.4419 -0.8586
vn -0.0385 -0.9803 -0.1939
vn 0.7316 -0.3630 -0.5771
vn 0.6738 -0.4669 -0.5727
vn -0.0887 -0.9811 -0.1719
vn -0.1131 -0.9626 0.2462
vn -0.3070 0.4067 -0.8604
vn -0.0299 -0.9912 -0.1289
vn -0.0234 -0.9916 -0.1275
vn -0.7912 0.4714 -0.3897
vn -0.6617 0.2066 0.7208
vn -0.6702 -0.6798 0.2980
vn 0.0240 -0.9953 -0.0939
vn 0.1285 -0.9773 -0.1682
vn -0.3071 0.9314 -0.1953
vn -0.3073 0.4211 0.8534
vn -0.1703 0.0252 0.9851
vn -0.1482 0.7774 -0.6113
vn -0.4520 0.8574 0.2459
vn 0.1386 -0.9592 -0.2464
vn -0.7995 0.4856 -0.3536
vn -0.0926 0.9817 0.1664
vn -0.2187 0.8749 0.4322
vn -0.5421 0.8205 -0.1817
vn -0.9433 0.0357 0.3299
vn -0.1700 0.0178 -0.9853
vn -0.2566 0.2938 0.9208
vn -0.8084 0.4775 0.3442
vn -0.1925 0.4036 -0.8945
vn -0.9422 0.0310 -0.3337
vn -0.1595 0.0006 -0.9872
vn -0.3247 0.8266 0.4597
vn 0.0880 -0.9822 -0.1662
vn 0.1847 -0.9434 -0.2756
vn -0.9130 0.3624 0.1874
vn -0.1626 -0.1190 0.9795
vn -0.8325 -0.5420 -0.1147
vn -0.7514 -0.6577 -0.0541
vn -0.2074 -0.5255 -0.8251
vn -0.2600 -0.4419 -0.8586
vn 0.0385 -0.9803 -0.1939
vn -0.7316 -0.3630 -0.5771
vn -0.6738 -0.4669 -0.5727
vn 0.0887 -0.9811 -0.1719
vn 0.1131 -0.9626 0.2462
usemtl None
s off
f 34//1 39//1 8//1 2//1 27//1
f 30//2 29//2 11//2 28//2
f 75//3 30//3 28//3 38//3
f 1//4 31//4 2//4 8//4 4//4
f 24//5 26//5 6//5 5//5
f 5//6 12//6 24//6
f 36//7 38//7 28//7 11//7 32//7 3//7
f 70//8 25//8 10//8 44//8
f 37//9 4//9 8//9 39//9
f 71//10 45//10 6//10 26//10
f 21//11 14//11 55//11
f 63//12 38//12 28//12 11//12 19//12
f 16//13 3//13 10//13 18//13
f 23//14 7//14 22//14 3//14
f 9//15 19//15 16//15 17//15
f 3//16 36//16 44//16 10//16
f 18//17 10//17 44//17 62//17
f 19//18 11//18 32//18 3//18 16//18
f 15//19 17//19 14//19 21//19
f 56//20 9//20 20//20
f 14//21 18//21 62//21 55//21
f 17//22 16//22 18//22 14//22
f 56//23 63//23 19//23 9//23
f 20//24 9//24 17//24 15//24
f 20//25 68//25 56//25
f 37//26 71//26 26//26 4//26
f 36//27 3//27 22//27 25//27 70//27
f 7//28 12//28 25//28 22//28
f 1//29 4//29 26//29 24//29 13//29
f 71//30 70//30 25//30 12//30 24//30 26//30
f 1//31 13//31 7//31 23//31
f 13//32 24//32 12//32 7//32
f 34//33 27//33 30//33 75//33
f 27//34 2//34 29//34 30//34
f 33//35 32//35 11//35 29//35
f 31//36 33//36 29//36 2//36
f 1//37 23//37 33//37 31//37
f 23//38 3//38 32//38 33//38
f 12//39 5//39 10//39 25//39
f 34//40 74//40 40//40 48//40 39//40
f 78//41 76//41 51//41 77//41
f 75//42 38//42 76//42 78//42
f 35//43 42//43 48//43 40//43 79//43
f 69//44 43//44 46//44 73//44
f 43//45 69//45 52//45
f 36//46 41//46 80//46 51//46 76//46 38//46
f 70//47 44//47 50//47 72//47
f 37//48 39//48 48//48 42//48
f 71//49 73//49 46//49 45//49
f 65//50 55//50 54//50
f 63//51 61//51 51//51 76//51 38//51
f 58//52 60//52 50//52 41//52
f 67//53 41//53 66//53 47//53
f 49//54 59//54 58//54 61//54
f 41//55 50//55 44//55 36//55
f 60//56 62//56 44//56 50//56
f 61//57 58//57 41//57 80//57 51//57
f 57//58 65//58 54//58 59//58
f 56//59 64//59 49//59
f 54//60 55//60 62//60 60//60
f 59//61 54//61 60//61 58//61
f 56//62 49//62 61//62 63//62
f 64//63 57//63 59//63 49//63
f 64//64 56//64 68//64
f 37//65 42//65 73//65 71//65
f 36//66 70//66 72//66 66//66 41//66
f 47//67 66//67 72//67 52//67
f 35//68 53//68 69//68 73//68 42//68
f 71//69 73//69 69//69 52//69 72//69 70//69
f 35//70 67//70 47//70 53//70
f 53//71 47//71 52//71 69//71
f 34//72 75//72 78//72 74//72
f 74//73 78//73 77//73 40//73
f 81//74 77//74 51//74 80//74
f 79//75 40//75 77//75 81//75
f 35//76 79//76 81//76 67//76
f 67//77 81//77 80//77 41//77
f 52//78 72//78 50//78 43//78
