# Blender v2.78 (sub 0) OBJ File: ''
# www.blender.org
mtllib cultist_0_robe_top.mtl
o robe_top_Cube.001
v 0.719683 2.353949 -0.074427
v 0.474200 2.474328 -0.421137
v 0.352654 2.208279 0.013929
v 0.493713 2.862720 0.088332
v 0.540486 2.172449 0.443151
v 0.350342 2.444998 0.508502
v 0.609908 2.145620 0.113164
v 0.322254 2.846485 -0.285482
v 0.676815 1.495517 -0.604085
v 0.305744 2.149435 0.311748
v 0.279605 2.243700 -0.221634
v 0.555961 2.105930 0.256577
v 0.713602 2.300437 0.081476
v 0.676815 1.495517 0.604085
v 0.909239 0.936233 0.000000
v 0.580510 2.093973 0.000048
v 0.923381 1.495517 0.000000
v 0.407614 2.060798 0.427129
v 0.398357 2.094180 -0.365007
v 0.724297 1.043127 -0.604085
v 0.724297 1.174235 0.604085
v 0.332032 2.182411 0.144852
v 0.623259 2.185310 -0.030249
v 0.707521 2.246926 0.237378
v 0.311410 2.156543 0.275776
v 0.488219 2.726853 0.332210
v 0.237100 2.474328 -0.498744
v 0.139803 2.243700 -0.246544
v 0.463994 2.263210 -0.321385
v 0.275542 2.263210 -0.372644
v 0.596941 2.414139 -0.247782
v 0.316130 2.225990 -0.103853
v 0.543627 2.224260 -0.175817
v 0.000000 2.474328 -0.576351
v -0.719683 2.353949 -0.074427
v 0.000000 2.227496 0.021367
v 0.000000 3.037436 0.118602
v 0.000000 2.243700 -0.271454
v 0.000000 2.928178 -0.375817
v -0.474200 2.474328 -0.421137
v -0.352654 2.208279 0.013929
v -0.493713 2.862720 0.088332
v -0.540486 2.172449 0.443151
v 0.000000 2.176113 0.399934
v 0.000000 2.522391 0.608904
v -0.350342 2.444998 0.508502
v -0.609908 2.145620 0.113164
v -0.322254 2.846485 -0.285482
v -0.676815 1.495517 -0.604085
v -0.305744 2.149435 0.311748
v -0.279605 2.243700 -0.221634
v -0.555961 2.105930 0.256577
v -0.713602 2.300437 0.081476
v -0.676815 1.495517 0.604085
v 0.000000 1.495517 0.721084
v 0.000000 1.495517 -0.720855
v -0.909239 0.936233 0.000000
v -0.580510 2.093973 0.000048
v -0.923381 1.495517 0.000000
v -0.407614 2.060798 0.427129
v -0.398357 2.094180 -0.365007
v 0.000000 2.080451 0.606103
v 0.000000 2.094180 -0.479616
v -0.724297 1.043127 -0.604085
v -0.724297 1.174235 0.604085
v -0.332032 2.182411 0.144852
v -0.623259 2.185310 -0.030249
v 0.000000 1.089213 -0.721084
v -0.707521 2.246926 0.237378
v 0.000000 2.182319 0.354209
v 0.000000 2.869208 0.425330
v -0.311410 2.156543 0.275776
v -0.488219 2.726853 0.332210
v -0.237100 2.474328 -0.498744
v 0.000000 2.263210 -0.423902
v -0.139803 2.243700 -0.246544
v -0.463994 2.263210 -0.321385
v -0.275542 2.263210 -0.372644
v -0.596941 2.414139 -0.247782
v -0.316130 2.225990 -0.103853
v -0.543627 2.224260 -0.175817
vt 0.2585 0.3279
vt 0.1734 0.3318
vt 0.1876 0.2700
vt 0.2570 0.2374
vt 0.2577 0.2826
vt 0.1015 0.4175
vt 0.0987 0.4443
vt 0.0749 0.4274
vt 0.0747 0.4086
vt 0.1015 0.3803
vt 0.0745 0.3898
vt 0.2477 0.2326
vt 0.2125 0.2105
vt 0.1774 0.1883
vt 0.2009 0.1153
vt 0.2751 0.1305
vt 0.1473 0.3130
vt 0.0590 0.2686
vt 0.1118 0.2396
vt 0.1619 0.2779
vt 0.2719 0.3731
vt 0.3197 0.3573
vt 0.3301 0.4092
vt 0.2606 0.4200
vt 0.2560 0.5003
vt 0.2339 0.4945
vt 0.2118 0.4887
vt 0.2056 0.4562
vt 0.1993 0.4236
vt 0.2606 0.3275
vt 0.2028 0.3499
vt 0.2033 0.3398
vt 0.2606 0.3148
vt 0.2640 0.0336
vt 0.1734 0.0586
vt 0.0331 0.1712
vt 0.0979 0.1694
vt 0.4093 0.0127
vt 0.3962 0.0954
vt 0.2083 0.0948
vt 0.3531 0.3126
vt 0.2989 0.3471
vt 0.2845 0.3191
vt 0.2701 0.2911
vt 0.3012 0.2345
vt 0.1991 0.2107
vt 0.2074 0.2788
vt 0.1364 0.2895
vt 0.1028 0.2571
vt 0.1495 0.4366
vt 0.1477 0.3958
vt 0.2010 0.3868
vt 0.3531 0.0614
vt 0.1875 0.0335
vt 0.2258 0.3555
vt 0.1318 0.3609
vt 0.0815 0.3519
vt 0.2387 0.2849
vt 0.1937 0.0126
vt 0.1895 0.1277
vt 0.0369 0.0700
vt 0.0367 0.0126
vt 0.2172 0.1324
vt 0.0345 0.1334
vt 0.0219 0.0170
vt 0.3245 0.2419
vt 0.2098 0.2460
vt 0.0507 0.1078
vt 0.2228 0.2885
vt 0.1165 0.2895
vt 0.3655 0.0242
vt 0.3649 0.1080
vt 0.2175 0.0278
vt 0.3171 0.0481
vt 0.3171 0.1414
vt 0.1525 0.3547
vt 0.3020 0.2374
vt 0.2749 0.2350
vt 0.7991 0.1980
vt 0.8004 0.0216
vt 0.8872 0.0154
vt 0.9548 0.0025
vt 0.9967 0.0389
vt 0.9348 0.1619
vt 0.4194 0.4237
vt 0.3748 0.4165
vt 0.3601 0.3699
vt 0.4007 0.3759
vt 0.2959 0.2772
vt 0.2965 0.3305
vt 0.2953 0.2411
vt 0.1663 0.4773
vt 0.1830 0.5180
vt 0.4700 0.4108
vt 0.4425 0.3666
vt 0.4843 0.3573
vt 0.5205 0.3979
vt 0.1732 0.3067
vt 0.2583 0.3760
vt 0.2581 0.4241
vt 0.1883 0.3969
vt 0.0745 0.4071
vt 0.0477 0.4160
vt 0.0479 0.3972
vt 0.0718 0.3803
vt 0.0745 0.4443
vt 0.0475 0.4348
vt 0.1558 0.3752
vt 0.1515 0.2621
vt 0.2046 0.2608
vt 0.2098 0.3427
vt 0.1828 0.3590
vt 0.0964 0.3803
vt 0.0494 0.3680
vt 0.0475 0.3012
vt 0.1018 0.2751
vt 0.2719 0.3731
vt 0.2138 0.4092
vt 0.2242 0.3573
vt 0.4724 0.3896
vt 0.4111 0.3859
vt 0.4174 0.3534
vt 0.4237 0.3208
vt 0.4457 0.3150
vt 0.4678 0.3092
vt 0.4724 0.4820
vt 0.4724 0.4947
vt 0.4151 0.4698
vt 0.4146 0.4596
vt 0.1348 0.1816
vt 0.2098 0.2176
vt 0.0590 0.0758
vt 0.1118 0.1013
vt 0.0109 0.0127
vt 0.0238 0.0954
vt 0.3350 0.2895
vt 0.3060 0.3293
vt 0.2670 0.3291
vt 0.2280 0.3288
vt 0.1537 0.3408
vt 0.2729 0.3392
vt 0.2556 0.3762
vt 0.1800 0.3946
vt 0.3614 0.3730
vt 0.4129 0.4228
vt 0.3595 0.4138
vt 0.0088 0.1995
vt 0.1241 0.1534
vt 0.0876 0.3725
vt 0.2486 0.4249
vt 0.1721 0.4162
vt 0.3584 0.3847
vt 0.3088 0.4147
vt 0.1561 0.4067
vt 0.1321 0.4187
vt 0.1324 0.0160
vt 0.2912 0.0777
vt 0.2924 0.1629
vt 0.4192 0.0170
vt 0.4058 0.1334
vt 0.1003 0.2419
vt 0.1131 0.0147
vt 0.1192 0.1869
vt 0.0041 0.1869
vt 0.0293 0.0124
vt 0.0727 0.1983
vt 0.3643 0.4548
vt 0.1261 0.3777
vt 0.6662 0.1619
vt 0.6074 0.0389
vt 0.6489 0.0025
vt 0.7159 0.0154
vt 0.1244 0.4237
vt 0.1432 0.3759
vt 0.1838 0.3699
vt 0.1691 0.4165
vt 0.2965 0.3857
vt 0.2964 0.4238
vt 0.3781 0.3323
vt 0.3949 0.2915
vt 0.0739 0.4108
vt 0.0233 0.3979
vt 0.0596 0.3573
vt 0.1014 0.3666
vt 0.3850 0.5029
vn 0.3070 0.4067 -0.8604
vn 0.0299 -0.9912 -0.1289
vn 0.0234 -0.9916 -0.1275
vn 0.7912 0.4714 -0.3897
vn 0.6617 0.2066 0.7208
vn 0.6702 -0.6798 0.2980
vn -0.0240 -0.9953 -0.0939
vn -0.1285 -0.9773 -0.1682
vn 0.3071 0.9314 -0.1953
vn 0.3073 0.4211 0.8534
vn 0.1703 0.0252 0.9851
vn 0.1482 0.7774 -0.6113
vn 0.4520 0.8574 0.2459
vn -0.1386 -0.9592 -0.2464
vn 0.7995 0.4856 -0.3536
vn 0.0926 0.9817 0.1664
vn 0.2187 0.8749 0.4322
vn 0.5421 0.8205 -0.1817
vn 0.9433 0.0357 0.3299
vn 0.1700 0.0178 -0.9853
vn 0.2566 0.2938 0.9208
vn 0.8084 0.4775 0.3442
vn 0.1925 0.4036 -0.8945
vn 0.9422 0.0310 -0.3337
vn 0.1595 0.0006 -0.9872
vn 0.3247 0.8266 0.4597
vn -0.0880 -0.9822 -0.1662
vn -0.1847 -0.9434 -0.2756
vn 0.9130 0.3624 0.1874
vn 0.1626 -0.1190 0.9795
vn 0.8325 -0.5420 -0.1147
vn 0.7514 -0.6577 -0.0541
vn 0.2074 -0.5255 -0.8251
vn 0.2600 -0.4419 -0.8586
vn -0.0385 -0.9803 -0.1939
vn 0.7316 -0.3630 -0.5771
vn 0.6738 -0.4669 -0.5727
vn -0.0887 -0.9811 -0.1719
vn -0.1131 -0.9626 0.2462
vn -0.3070 0.4067 -0.8604
vn -0.0299 -0.9912 -0.1289
vn -0.0234 -0.9916 -0.1275
vn -0.7912 0.4714 -0.3897
vn -0.6617 0.2066 0.7208
vn -0.6702 -0.6798 0.2980
vn 0.0240 -0.9953 -0.0939
vn 0.1285 -0.9773 -0.1682
vn -0.3071 0.9314 -0.1953
vn -0.3073 0.4211 0.8534
vn -0.1703 0.0252 0.9851
vn -0.1482 0.7774 -0.6113
vn -0.4520 0.8574 0.2459
vn 0.1386 -0.9592 -0.2464
vn -0.7995 0.4856 -0.3536
vn -0.0926 0.9817 0.1664
vn -0.2187 0.8749 0.4322
vn -0.5421 0.8205 -0.1817
vn -0.9433 0.0357 0.3299
vn -0.1700 0.0178 -0.9853
vn -0.2566 0.2938 0.9208
vn -0.8084 0.4775 0.3442
vn -0.1925 0.4036 -0.8945
vn -0.9422 0.0310 -0.3337
vn -0.1595 0.0006 -0.9872
vn -0.3247 0.8266 0.4597
vn 0.0880 -0.9822 -0.1662
vn 0.1847 -0.9434 -0.2756
vn -0.9130 0.3624 0.1874
vn -0.1626 -0.1190 0.9795
vn -0.8325 -0.5420 -0.1147
vn -0.7514 -0.6577 -0.0541
vn -0.2074 -0.5255 -0.8251
vn -0.2600 -0.4419 -0.8586
vn 0.0385 -0.9803 -0.1939
vn -0.7316 -0.3630 -0.5771
vn -0.6738 -0.4669 -0.5727
vn 0.0887 -0.9811 -0.1719
vn 0.1131 -0.9626 0.2462
usemtl None
s off
f 34/1/1 39/2/1 8/3/1 2/4/1 27/5/1
f 30/6/2 29/7/2 11/8/2 28/9/2
f 75/10/3 30/6/3 28/9/3 38/11/3
f 1/12/4 31/13/4 2/14/4 8/15/4 4/16/4
f 24/17/5 26/18/5 6/19/5 5/20/5
f 5/21/6 12/22/6 24/23/6
f 36/24/7 38/25/7 28/26/7 11/27/7 32/28/7 3/29/7
f 70/30/8 25/31/8 10/32/8 44/33/8
f 37/34/9 4/16/9 8/15/9 39/35/9
f 71/36/10 45/37/10 6/19/10 26/18/10
f 21/38/11 14/39/11 55/40/11
f 63/41/12 38/42/12 28/43/12 11/44/12 19/45/12
f 16/46/13 3/47/13 10/48/13 18/49/13
f 23/50/14 7/51/14 22/52/14 3/29/14
f 9/53/15 19/45/15 16/46/15 17/54/15
f 3/47/16 36/55/16 44/56/16 10/48/16
f 18/49/17 10/48/17 44/56/17 62/57/17
f 19/45/18 11/44/18 32/58/18 3/47/18 16/46/18
f 15/59/19 17/60/19 14/61/19 21/62/19
f 56/63/20 9/64/20 20/65/20
f 14/39/21 18/66/21 62/67/21 55/40/21
f 17/54/22 16/46/22 18/49/22 14/68/22
f 56/63/23 63/69/23 19/70/23 9/64/23
f 20/71/24 9/72/24 17/60/24 15/59/24
f 20/65/25 68/73/25 56/63/25
f 37/34/26 71/74/26 26/75/26 4/16/26
f 36/24/27 3/29/27 22/52/27 25/31/27 70/30/27
f 7/51/28 12/76/28 25/31/28 22/52/28
f 1/12/29 4/16/29 26/75/29 24/77/29 13/78/29
f 71/79/30 70/80/30 25/81/30 12/82/30 24/83/30 26/84/30
f 1/85/31 13/86/31 7/87/31 23/88/31
f 13/86/32 24/23/32 12/22/32 7/87/32
f 34/1/33 27/5/33 30/89/33 75/90/33
f 27/5/34 2/4/34 29/91/34 30/89/34
f 33/92/35 32/28/35 11/27/35 29/93/35
f 31/94/36 33/95/36 29/96/36 2/97/36
f 1/85/37 23/88/37 33/95/37 31/94/37
f 23/50/38 3/29/38 32/28/38 33/92/38
f 12/76/39 5/98/39 10/32/39 25/31/39
f 34/1/40 74/99/40 40/100/40 48/101/40 39/2/40
f 78/102/41 76/103/41 51/104/41 77/105/41
f 75/106/42 38/107/42 76/103/42 78/102/42
f 35/108/43 42/109/43 48/110/43 40/111/43 79/112/43
f 69/113/44 43/114/44 46/115/44 73/116/44
f 43/117/45 69/118/45 52/119/45
f 36/120/46 41/121/46 80/122/46 51/123/46 76/124/46 38/125/46
f 70/126/47 44/127/47 50/128/47 72/129/47
f 37/130/48 39/131/48 48/110/48 42/109/48
f 71/36/49 73/132/49 46/133/49 45/37/49
f 65/134/50 55/40/50 54/135/50
f 63/69/51 61/136/51 51/137/51 76/138/51 38/139/51
f 58/140/52 60/141/52 50/142/52 41/143/52
f 67/144/53 41/121/53 66/145/53 47/146/53
f 49/147/54 59/148/54 58/140/54 61/149/54
f 41/150/55 50/151/55 44/56/55 36/55/55
f 60/141/56 62/152/56 44/153/56 50/142/56
f 61/149/57 58/140/57 41/143/57 80/154/57 51/155/57
f 57/156/58 65/157/58 54/158/58 59/148/58
f 56/63/59 64/159/59 49/160/59
f 54/135/60 55/40/60 62/67/60 60/161/60
f 59/148/61 54/158/61 60/141/61 58/140/61
f 56/63/62 49/160/62 61/136/62 63/69/62
f 64/162/63 57/163/63 59/164/63 49/165/63
f 64/159/64 56/63/64 68/73/64
f 37/130/65 42/109/65 73/116/65 71/166/65
f 36/120/66 70/126/66 72/129/66 66/145/66 41/121/66
f 47/146/67 66/145/67 72/129/67 52/167/67
f 35/108/68 53/168/68 69/113/68 73/116/68 42/109/68
f 71/79/69 73/169/69 69/170/69 52/171/69 72/172/69 70/80/69
f 35/173/70 67/174/70 47/175/70 53/176/70
f 53/176/71 47/175/71 52/119/71 69/118/71
f 34/1/72 75/90/72 78/177/72 74/99/72
f 74/99/73 78/177/73 77/178/73 40/100/73
f 81/179/74 77/180/74 51/123/74 80/122/74
f 79/181/75 40/182/75 77/183/75 81/184/75
f 35/173/76 79/181/76 81/184/76 67/174/76
f 67/144/77 81/179/77 80/122/77 41/121/77
f 52/167/78 72/129/78 50/128/78 43/185/78
