# Blender v2.78 (sub 0) OBJ File: ''
# www.blender.org
mtllib cultist_0_hands.mtl
o book_Cube.004
v 0.193582 1.112416 0.873707
v 0.193582 1.441035 0.873707
v 0.193582 1.112416 0.545088
v 0.193582 1.441035 0.545088
v 0.522201 1.112416 0.873707
v 0.522201 1.441035 0.873707
v 0.522201 1.112416 0.545088
v 0.522201 1.441035 0.545088
v -0.193582 1.112416 0.873707
v -0.193582 1.441035 0.873707
v -0.193582 1.112416 0.545088
v -0.193582 1.441035 0.545088
v -0.522201 1.112416 0.873707
v -0.522201 1.441035 0.873707
v -0.522201 1.112416 0.545088
v -0.522201 1.441035 0.545088
v -0.235675 1.089096 0.794306
v -0.235675 1.855451 1.006598
v -0.235675 1.132746 0.636737
v -0.235675 1.899100 0.849028
v 0.235675 1.089096 0.794306
v 0.235675 1.855451 1.006598
v 0.235675 1.132746 0.636737
v 0.235675 1.899100 0.849028
vt 0.7613 0.8888
vt 0.7083 0.8888
vt 0.7083 0.7833
vt 0.7613 0.7833
vt 0.8284 0.7679
vt 0.7842 0.7679
vt 0.7842 0.7210
vt 0.8284 0.7210
vt 0.8772 0.9164
vt 0.8324 0.9164
vt 0.8324 0.8273
vt 0.8772 0.8273
vt 0.8288 0.9164
vt 0.8730 0.9164
vt 0.8730 0.9633
vt 0.8288 0.9633
vt 0.7083 0.8888
vt 0.7613 0.8888
vt 0.7613 0.9943
vt 0.7083 0.9943
vt 0.8772 0.8273
vt 0.9220 0.8273
vt 0.9220 0.9163
vt 0.8772 0.9163
vt 0.8324 0.8273
vt 0.8324 0.9164
vt 0.7877 0.9164
vt 0.7877 0.8273
vt 0.9103 0.7362
vt 0.9103 0.6894
vt 0.9545 0.6894
vt 0.9545 0.7362
vt 0.7083 0.7833
vt 0.7083 0.8888
vt 0.6553 0.8888
vt 0.6553 0.7833
vt 0.8655 0.8253
vt 0.8655 0.7784
vt 0.9097 0.7784
vt 0.9097 0.8253
vt 0.7083 0.8888
vt 0.7083 0.9943
vt 0.6553 0.9943
vt 0.6553 0.8888
vt 0.9103 0.6894
vt 0.9103 0.7784
vt 0.8655 0.7784
vt 0.8655 0.6894
vt 0.8102 0.2832
vt 0.8102 0.4538
vt 0.7564 0.4338
vt 0.7564 0.2632
vt 0.6677 0.4249
vt 0.6677 0.2632
vt 0.7564 0.2632
vt 0.7564 0.4249
vt 0.9912 0.2627
vt 0.9912 0.5685
vt 0.8948 0.6043
vt 0.8948 0.2984
vt 0.5789 0.4249
vt 0.5789 0.2632
vt 0.6677 0.2632
vt 0.6677 0.4249
vt 0.9809 0.3372
vt 0.9809 0.5072
vt 0.8769 0.5072
vt 0.8769 0.3372
vt 0.9750 0.3453
vt 0.9750 0.5117
vt 0.8731 0.5117
vt 0.8731 0.3453
vn -1.0000 0.0000 0.0000
vn 0.0000 0.0000 -1.0000
vn 1.0000 0.0000 0.0000
vn 0.0000 0.0000 1.0000
vn 0.0000 -1.0000 0.0000
vn 0.0000 1.0000 -0.0000
vn 0.0000 0.2670 -0.9637
vn 0.0000 -0.2670 0.9637
vn 0.0000 -0.9637 -0.2670
vn 0.0000 0.9637 0.2670
usemtl None
s off
f 1/1/1 2/2/1 4/3/1 3/4/1
f 3/5/2 4/6/2 8/7/2 7/8/2
f 7/9/3 8/10/3 6/11/3 5/12/3
f 5/13/4 6/14/4 2/15/4 1/16/4
f 3/17/5 7/18/5 5/19/5 1/20/5
f 8/21/6 4/22/6 2/23/6 6/24/6
f 9/25/3 11/26/3 12/27/3 10/28/3
f 11/29/2 15/30/2 16/31/2 12/32/2
f 15/33/1 13/34/1 14/35/1 16/36/1
f 13/37/4 9/38/4 10/39/4 14/40/4
f 11/41/5 9/42/5 13/43/5 15/44/5
f 16/45/6 14/46/6 10/47/6 12/48/6
f 17/49/1 18/50/1 20/51/1 19/52/1
f 19/53/7 20/54/7 24/55/7 23/56/7
f 23/57/3 24/58/3 22/59/3 21/60/3
f 21/61/8 22/62/8 18/63/8 17/64/8
f 19/65/9 23/66/9 21/67/9 17/68/9
f 24/69/10 20/70/10 18/71/10 22/72/10
