# Blender v2.78 (sub 0) OBJ File: ''
# www.blender.org
mtllib leaves.mtl
o leafing_1_Icosphere.002
v -3.163553 3.580470 -2.022777
v -3.554288 4.076544 -0.231159
v -6.078744 2.939065 -1.974085
v -3.936976 3.534987 -4.906266
v -0.565053 3.396654 -3.394156
v -0.925960 3.607234 -0.953438
v -4.571288 4.891530 -1.734619
v -4.598643 4.706865 -3.787893
v -2.299399 4.474072 -4.377487
v -1.374501 5.070741 -2.825165
v -2.362264 5.503273 -1.474477
v -2.969334 5.321187 -3.375437
v -2.489401 4.960649 -0.894714
v -0.432239 4.435720 -0.735801
v -1.466120 4.297959 0.660845
v -3.963220 4.508610 0.113401
v -4.223016 4.419459 -2.210728
v -1.645187 4.041053 -3.135706
v -0.831028 5.712498 -0.339216
v -2.740234 5.660105 0.648339
v -4.415227 5.832557 -0.800866
v -3.344121 5.466881 -3.176999
v -1.220011 5.274169 -2.402520
v -2.527675 6.353162 -0.904894
v -5.249990 3.066488 -1.500849
v -3.321178 3.206419 -0.542751
v -5.528768 2.610265 0.148106
v -6.920674 2.623031 -1.411830
v -5.515301 2.592070 -2.978421
v -3.813516 2.955800 -2.385072
v -5.067902 4.123277 0.141725
v -6.696404 3.549153 -0.452440
v -6.697464 3.535490 -2.384643
v -4.822318 4.229768 -2.985876
v -3.744975 4.389894 -1.433538
v -5.449921 4.582931 -1.437582
v -2.126477 6.022913 1.616606
v -1.578964 5.876706 -0.064184
v 0.260389 5.970455 2.610929
v -1.485497 5.421607 4.262757
v -3.842226 5.508426 2.937930
v -3.719660 5.740659 0.531818
v -0.197426 7.096030 1.464660
v -1.360291 7.215861 3.997803
v -2.832111 6.646049 4.356008
v -3.918451 6.990394 1.557914
v -1.606764 7.115473 -0.051818
v -2.207534 7.729805 2.715496
v -4.135738 6.129847 0.142424
v 0.701729 6.203497 0.467679
v -2.371427 6.956549 1.764730
v -4.403944 7.506547 -0.041698
v -2.970731 6.335603 -2.541467
v -0.405193 6.179964 -2.200216
v 0.599341 7.865815 0.685225
v -2.640056 8.811247 0.371439
v -3.313751 8.061077 -1.843606
v -0.951210 7.552389 -2.608548
v 0.806815 7.073681 -1.662721
v -0.472640 8.488921 -0.780270
v 1.315099 5.507902 -0.204992
v 2.644802 4.952721 0.975115
v 1.322070 5.555565 1.716082
v -0.368827 5.373189 -0.000585
v 0.012925 5.626969 -2.320491
v 2.275590 5.354383 -1.330806
v 1.922604 6.393122 1.651015
v 0.000670 6.544147 1.044390
v -0.114402 6.642349 -0.763768
v 1.494247 6.709257 -1.766338
v 2.945579 6.354837 -0.387847
v 1.081352 7.060010 0.426923
v 0.649381 7.565042 -1.747793
v 2.316478 7.924905 -0.533256
v -0.442070 7.629960 -0.059135
v -1.841982 8.144295 -1.786607
v -0.568600 7.362348 -3.185055
v 2.989733 7.652052 -2.555202
v 0.847710 9.227126 -0.106958
v -0.796880 9.255092 -0.770423
v -0.949650 9.020342 -2.710994
v 1.558526 8.857698 -3.274249
v 2.996618 8.824272 -1.721032
v 0.879948 9.937809 -1.772550
v 2.912337 6.848413 -0.531626
v 1.642560 7.993326 -1.587171
v 3.885509 7.604406 -2.393671
v 5.242737 6.786986 -0.525558
v 4.163854 6.732512 1.564000
v 1.890096 7.944000 -0.222201
v 3.454004 8.858690 -2.487278
v 5.643559 8.191428 -1.612407
v 5.696223 7.964366 0.706493
v 3.713365 8.119182 1.682152
v 2.419912 9.202541 -0.880861
v 4.405632 9.136900 -0.416560
v 4.068120 5.436490 2.116307
v 4.191555 5.551180 3.197437
v 2.440580 6.097929 2.077754
v 2.581522 5.503037 0.760190
v 4.546256 5.640515 0.485085
v 5.486561 5.361517 2.420927
v 3.138993 6.853148 2.614182
v 2.478274 6.624749 1.038331
v 3.424800 6.497258 0.256361
v 5.256232 6.552783 1.259763
v 4.994463 6.403049 2.771646
v 3.782889 7.115822 1.523184
vt 0.3835 0.4974
vt 0.0641 0.6402
vt 0.1015 0.0901
vt 0.4731 0.9161
vt 0.7037 0.0901
vt 0.8629 0.7072
vt 0.7150 0.6152
vt 0.2507 0.9521
vt 0.2507 0.0463
vt 0.7876 0.1120
vt 0.7940 0.5633
vt 0.5041 0.6528
vt 0.3371 0.1120
vt 0.2941 0.4708
vt 0.7321 0.9709
vt 0.2822 0.6567
vt 0.6868 0.4815
vt 0.7268 0.8995
vt 0.3155 0.8995
vt 0.5150 0.3082
vt 0.7482 0.1525
vt 0.3866 0.2282
vt 0.2034 0.4854
vt 0.7530 0.1974
vt 0.4214 0.8673
vt 0.2338 0.6849
vt 0.7321 0.1576
vt 0.7192 0.4116
vt 0.7192 0.9650
vt 0.3179 0.6149
vt 0.3190 0.1136
vt 0.5137 0.4366
vt 0.0409 0.2572
vt 0.3850 0.0542
vt 0.0828 0.9038
vt 0.0779 0.1107
vt 0.9229 0.1107
vt 0.1483 0.9353
vt 0.9056 0.3749
vt 0.7577 0.9038
vt 0.7979 0.4100
vt 0.9216 0.9596
vt 0.3396 0.7101
vt 0.9216 0.1490
vt 0.1910 0.2425
vt 0.3505 0.1242
vt 0.8164 0.1026
vt 0.4658 0.5930
vt 0.2833 0.2440
vt 0.9138 0.1166
vt 0.9138 0.9350
vt 0.0918 0.0910
vt 0.9391 0.0910
vt 0.8911 0.8721
vt 0.8164 0.7228
vt 0.1606 0.6679
vt 0.2410 0.9599
vt 0.2330 0.9197
vt 0.3398 0.1118
vt 0.8665 0.3143
vt 0.1808 0.5689
vt 0.4579 0.9409
vt 0.8665 0.8574
vt 0.2342 0.9600
vt 0.4570 0.4233
vt 0.6505 0.9328
vt 0.1573 0.6616
vt 0.8908 0.4978
vt 0.1573 0.1380
vt 0.6957 0.0844
vt 0.6425 0.7947
vt 0.1873 0.7947
vt 0.6251 0.1569
vt 0.8463 0.9040
vt 0.3245 0.8486
vt 0.4773 0.3688
vt 0.7206 0.9150
vt 0.4087 0.9699
vt 0.4137 0.5771
vt 0.3919 0.8608
vt 0.0354 0.7478
vt 0.2708 0.2710
vt 0.8562 0.8053
vt 0.8562 0.0428
vt 0.1381 0.3342
vt 0.8463 0.4266
vt 0.7827 0.4723
vt 0.2352 0.1361
vt 0.3960 0.1119
vt 0.2053 0.3251
vt 0.4497 0.0539
vt 0.7827 0.0948
vt 0.1855 0.5900
vt 0.7786 0.2006
vt 0.7786 0.8694
vt 0.5737 0.4968
vt 0.8173 0.3144
vt 0.8173 0.8555
vt 0.4660 0.1890
vt 0.4405 0.8966
vt 0.2309 0.4970
vt 0.2305 0.0702
vt 0.8633 0.0303
vt 0.1661 0.8618
vt 0.2258 0.6814
vt 0.1928 0.0664
vt 0.8087 0.4558
vt 0.5399 0.1571
vt 0.7443 0.4720
vt 0.3634 0.7448
vt 0.1866 0.1309
vt 0.2066 0.4844
vt 0.3553 0.1817
vt 0.7154 0.2751
vt 0.2959 0.6139
vt 0.8228 0.1025
vt 0.8228 0.9863
vt 0.7154 0.7275
vt 0.8633 0.8195
vt 0.1775 0.6665
vt 0.2902 0.1844
vt 0.8750 0.7015
vt 0.7086 0.9800
vt 0.1866 0.9198
vt 0.3179 0.9470
vt 0.8750 0.1211
vt 0.3693 0.9517
vt 0.8416 0.1587
vt 0.8416 0.8205
vt 0.2826 0.1298
vt 0.3338 0.9000
vt 0.1581 0.5701
vt 0.4369 0.4903
vt 0.7211 0.8765
vt 0.0122 0.5455
vt 0.3029 0.1987
vt 0.7657 0.0596
vt 0.7540 0.4356
vt 0.7634 0.4291
vt 0.7634 0.8075
vt 0.4004 0.6326
vt 0.6772 0.1729
vt 0.3193 0.2182
vt 0.7211 0.3407
vt 0.2568 0.9284
vt 0.1090 0.4478
vt 0.7838 0.5747
vt 0.4401 0.8340
vt 0.4565 0.0437
vt 0.7838 0.0584
vt 0.7214 0.9711
vt 0.7657 0.9917
vt 0.2657 0.4644
vt 0.6963 0.7781
vt 0.2664 0.9399
vt 0.2664 0.5428
vt 0.6528 0.3476
vt 0.4395 0.0970
vt 0.5492 0.4234
vt 0.4726 0.0422
vt 0.8563 0.1060
vt 0.1975 0.4627
vt 0.8563 0.6593
vt 0.4417 0.9697
vt 0.3977 0.1246
vt 0.8000 0.3553
vt 0.5470 0.7414
vt 0.8902 0.6277
vt 0.7474 0.8951
vt 0.6792 0.3809
vt 0.9190 0.5032
vt 0.9190 0.9330
vt 0.4146 0.9524
vt 0.5807 0.0601
vt 0.2143 0.5816
vt 0.3033 0.0825
vt 0.8333 0.3124
vt 0.3980 0.8595
vt 0.1867 0.6883
vt 0.9364 0.1890
vt 0.8167 0.8595
vt 0.8000 0.9168
vt 0.3797 0.9915
vt 0.6792 0.0659
vt 0.0689 0.9346
vt 0.2630 0.6030
vt 0.1861 0.0290
vt 0.8813 0.0290
vt 0.8721 0.9469
vt 0.5592 0.5664
vt 0.3628 0.9349
vt 0.1786 0.4230
vt 0.8065 0.9856
vt 0.4256 0.0789
vt 0.8065 0.2746
vt 0.2016 0.0279
vt 0.8622 0.0383
vt 0.3490 0.7619
vt 0.2105 0.0524
vt 0.7100 0.1365
vt 0.4826 0.6390
vt 0.7176 0.6790
vt 0.5176 0.9240
vt 0.3936 0.3573
vt 0.1861 0.8532
vt 0.0877 0.5092
vt 0.3659 0.2582
vt 0.7751 0.9810
vt 0.7382 0.4702
vt 0.8795 0.5118
vt 0.2105 0.7022
vt 0.7176 0.3159
vt 0.8622 0.9186
vt 0.5436 0.9716
vt 0.4232 0.0351
vt 0.7751 0.0613
vt 0.1718 0.0663
vt 0.8705 0.0663
vt 0.5840 0.9284
vt 0.5714 0.0299
vt 0.8926 0.5219
vt 0.4074 0.4172
vt 0.2245 0.6030
vt 0.2472 0.1872
vt 0.4289 0.5127
vt 0.0966 0.0650
vt 0.5788 0.2244
vt 0.5788 0.5861
vt 0.2534 0.4203
vt 0.5659 0.0550
vt 0.5031 0.9842
vt 0.5745 0.9694
vt 0.0966 0.7186
vt 0.6235 0.9419
vt 0.3355 0.8198
vt 0.6550 0.4876
vt 0.7642 0.5020
vt 0.2245 0.9859
vt 0.3355 0.3023
vt 0.2524 0.0409
vt 0.5992 0.4054
vt 0.2954 0.5031
vt 0.1682 0.5689
vt 0.2326 0.0131
vt 0.7538 0.2594
vt 0.7538 0.9807
vt 0.5992 0.0521
vt 0.5299 0.8681
vt 0.2524 0.9802
vt 0.4867 0.6524
vt 0.3560 0.9642
vt -0.0037 0.4571
vt 0.8363 0.9305
vt 0.2705 0.0860
vt 0.8363 0.3044
vt 0.5919 0.7674
vt 0.3667 0.9569
vt 0.2277 0.4976
vt 0.7347 0.3269
vt 0.4537 0.1148
vt 0.4663 0.1287
vt 0.6526 0.4669
vt 0.3685 0.6412
vt 0.8626 0.3073
vt 0.9342 0.9045
vt 0.2400 0.6127
vt 0.8914 0.9046
vt 0.1297 0.9046
vt 0.2009 0.1023
vt 0.6526 0.8574
vt 0.1484 0.9045
vt 0.2441 0.0781
vt 0.7574 0.0762
vt 0.2277 0.0438
vt 0.3905 0.9306
vt 0.2803 0.1872
vt 0.6325 0.0564
vt 0.7605 0.4906
vt 0.2803 0.8245
vt 0.5933 0.9753
vn 0.2096 -0.9296 0.3031
vn -0.1051 -0.9641 0.2440
vn 0.2140 -0.9759 -0.0420
vn -0.0546 -0.9980 0.0304
vn -0.0272 -0.9963 0.0819
vn 0.3108 0.4635 0.8298
vn -0.6361 0.4110 0.6531
vn -0.8129 0.0902 -0.5754
vn 0.3959 -0.1838 -0.8997
vn 0.9086 0.4056 0.0994
vn -0.2787 0.7527 0.5965
vn -0.7881 0.6139 -0.0447
vn -0.1275 0.6461 -0.7525
vn 0.6414 0.5061 -0.5767
vn 0.7111 0.6264 0.3194
vn -0.2661 0.9639 -0.0074
vn -0.3339 0.9392 -0.0800
vn -0.1011 0.7254 -0.6809
vn 0.2982 0.8179 -0.4921
vn 0.2063 0.9656 -0.1584
vn -0.2204 -0.9412 -0.2560
vn -0.2576 -0.9241 0.2822
vn 0.0097 -0.9176 -0.3973
vn 0.2955 -0.9553 0.0036
vn 0.0005 -0.9251 0.3798
vn 0.8945 -0.0439 -0.4449
vn 0.7991 0.0639 0.5978
vn -0.2260 -0.2026 0.9528
vn -0.9618 -0.2476 0.1170
vn -0.3593 -0.4518 -0.8166
vn 0.9009 0.3577 -0.2458
vn 0.4136 0.3944 0.8206
vn -0.6059 0.3015 0.7362
vn -0.8466 0.3138 -0.4299
vn 0.3466 0.3882 -0.8539
vn 0.4164 0.8702 -0.2634
vn 0.1938 0.8857 0.4218
vn -0.2279 0.9004 0.3706
vn -0.2699 0.9259 -0.2642
vn 0.2344 0.8742 -0.4252
vn 0.1849 -0.9548 -0.2329
vn 0.0057 -0.9911 0.1333
vn 0.2392 -0.9455 -0.2211
vn 0.2608 -0.9318 0.2524
vn 0.1034 -0.9523 0.2872
vn 0.9524 0.1356 -0.2730
vn 0.3203 -0.0936 0.9427
vn -0.6676 -0.4516 0.5920
vn -0.6643 -0.4631 -0.5868
vn 0.3545 -0.1542 -0.9222
vn 0.5462 0.6198 0.5636
vn -0.3770 0.1187 0.9186
vn -0.9716 0.2365 -0.0011
vn -0.3501 0.1439 -0.9256
vn 0.7574 0.3355 -0.5602
vn 0.1082 0.9612 0.2536
vn -0.4217 0.8381 0.3459
vn -0.6407 0.7677 -0.0051
vn -0.4234 0.8308 -0.3611
vn 0.1111 0.9777 -0.1780
vn -0.0511 -0.9962 0.0700
vn 0.0954 -0.9885 0.1171
vn 0.0782 -0.9679 -0.2389
vn 0.1015 -0.9645 -0.2438
vn 0.2278 -0.9703 -0.0820
vn -0.2684 0.0036 -0.9633
vn 0.8060 -0.2284 -0.5462
vn 0.6757 0.0613 0.7346
vn -0.4305 -0.5292 0.7312
vn -0.9923 -0.1078 -0.0610
vn 0.7325 0.0232 -0.6804
vn 0.7309 0.6096 0.3067
vn 0.1864 0.1308 0.9737
vn -0.8741 0.3062 0.3771
vn -0.5148 0.4936 -0.7009
vn 0.1977 0.9652 -0.1713
vn 0.3686 0.9211 0.1256
vn -0.2122 0.8506 0.4811
vn -0.5452 0.7798 0.3076
vn -0.2306 0.9381 -0.2583
vn -0.0181 -0.8827 0.4695
vn 0.0151 -0.9999 0.0026
vn -0.6687 -0.0309 0.7429
vn -0.8870 -0.2266 -0.4024
vn -0.0474 -0.9942 -0.0968
vn 0.6453 -0.7179 -0.2614
vn 0.3664 -0.0985 0.9252
vn -0.5137 0.4665 0.7200
vn -0.8598 0.0351 -0.5094
vn 0.1135 -0.2416 -0.9637
vn 0.9962 0.0521 0.0704
vn 0.1007 0.6069 0.7884
vn -0.5766 0.8110 -0.0993
vn -0.2269 0.3261 -0.9177
vn 0.4545 -0.0830 -0.8869
vn 0.6695 0.7198 -0.1837
vn 0.2544 0.9429 0.2148
vn -0.0255 0.9492 -0.3137
vn 0.0403 0.8850 -0.4639
vn 0.4666 0.7317 -0.4969
vn -0.4034 -0.9147 0.0242
vn -0.2910 -0.9493 -0.1188
vn 0.0827 -0.9963 0.0244
vn 0.0676 -0.9929 -0.0975
vn -0.1300 -0.9912 0.0242
vn 0.8926 -0.3978 -0.2122
vn 0.3997 -0.2174 0.8905
vn -0.6334 -0.3943 0.6658
vn -0.9829 0.1068 -0.1501
vn 0.3929 -0.0682 -0.9170
vn 0.8708 0.2337 0.4325
vn -0.2710 0.2662 0.9250
vn -0.9682 0.2389 0.0746
vn -0.3621 0.7669 -0.5298
vn 0.7002 0.1818 -0.6904
vn 0.4202 0.8864 0.1942
vn -0.1005 0.8430 0.5284
vn -0.3944 0.9159 0.0748
vn -0.1553 0.9705 -0.1844
vn 0.3172 0.9440 -0.0912
vn 0.1258 -0.9849 0.1192
vn 0.0929 -0.9822 0.1635
vn -0.2236 -0.9688 -0.1073
vn -0.2195 -0.9230 0.3162
vn 0.0660 -0.9943 0.0843
vn 0.9097 -0.2444 0.3359
vn 0.1803 -0.1164 0.9767
vn -0.7540 0.1182 0.6462
vn -0.7317 0.0266 -0.6811
vn 0.1905 -0.3261 -0.9259
vn 0.5898 0.4445 0.6743
vn -0.3512 0.3100 0.8835
vn -0.7150 0.6985 -0.0282
vn -0.1994 0.2268 -0.9533
vn 0.6673 0.4292 -0.6086
vn 0.4271 0.8286 0.3618
vn -0.1403 0.9116 0.3863
vn -0.4151 0.9065 -0.0770
vn -0.0850 0.7903 -0.6068
vn 0.4367 0.8122 -0.3868
vn -0.3181 -0.8088 -0.4946
vn -0.7123 -0.6941 0.1041
vn -0.0233 -0.9220 -0.3865
vn -0.0262 -0.9989 -0.0396
vn -0.6369 -0.6909 0.3421
vn -0.8715 0.4583 0.1746
vn -0.3614 -0.1924 -0.9123
vn 0.4823 -0.6181 -0.6208
vn 0.6977 -0.6285 0.3438
vn -0.6807 -0.2789 0.6774
vn -0.5631 0.6557 -0.5029
vn 0.3872 0.0646 -0.9197
vn 0.9490 -0.3111 -0.0520
vn 0.4448 0.0684 0.8930
vn -0.6272 0.5517 0.5497
vn 0.0711 0.9838 -0.1648
vn 0.3842 0.8751 -0.2942
vn 0.6420 0.7643 0.0603
vn 0.3072 0.8126 0.4954
vn -0.0676 0.9063 0.4172
vn -0.3756 -0.9161 0.1401
vn -0.0768 -0.9905 0.1138
vn -0.3596 -0.8643 0.3518
vn 0.0543 -0.9926 -0.1082
vn -0.0242 -0.9911 -0.1311
vn 0.5083 -0.0494 0.8598
vn -0.5540 -0.0765 0.8290
vn -0.9946 -0.0734 -0.0733
vn -0.1022 -0.3793 -0.9196
vn 0.8482 -0.2764 -0.4518
vn 0.0268 0.4266 0.9040
vn -0.7931 0.5544 0.2522
vn -0.6203 0.1345 -0.7728
vn 0.4405 0.3567 -0.8238
vn 0.9106 0.3650 0.1938
vn 0.1949 0.9212 0.3368
vn -0.3569 0.9340 0.0143
vn -0.1964 0.9018 -0.3848
vn 0.2371 0.8449 -0.4796
vn 0.3768 0.9131 0.1557
usemtl None
s off
f 1/1/1 2/2/1 3/3/1
f 2/2/2 1/1/2 6/4/2
f 1/1/3 3/3/3 4/5/3
f 1/1/4 4/5/4 5/6/4
f 1/1/5 5/6/5 6/4/5
f 2/7/6 6/8/6 11/9/6
f 3/10/7 2/11/7 7/12/7
f 4/13/8 3/10/8 8/14/8
f 5/15/9 4/16/9 9/17/9
f 6/18/10 5/19/10 10/20/10
f 2/7/11 11/9/11 7/21/11
f 3/10/12 7/12/12 8/14/12
f 4/16/13 8/22/13 9/17/13
f 5/19/14 9/23/14 10/20/14
f 6/18/15 10/20/15 11/24/15
f 7/12/16 11/25/16 12/26/16
f 8/14/17 7/12/17 12/26/17
f 9/17/18 8/22/18 12/27/18
f 10/28/19 9/29/19 12/30/19
f 11/31/20 10/28/20 12/30/20
f 13/32/21 14/33/21 15/34/21
f 14/33/22 13/32/22 18/35/22
f 13/36/23 15/37/23 16/38/23
f 13/32/24 16/39/24 17/40/24
f 13/32/25 17/40/25 18/35/25
f 14/41/26 18/42/26 23/43/26
f 15/44/27 14/41/27 19/45/27
f 16/46/28 15/47/28 20/48/28
f 17/49/29 16/50/29 21/51/29
f 18/52/30 17/53/30 22/54/30
f 14/41/31 23/43/31 19/45/31
f 15/47/32 19/55/32 20/48/32
f 16/46/33 20/48/33 21/56/33
f 17/49/34 21/51/34 22/57/34
f 18/52/35 22/54/35 23/58/35
f 19/59/36 23/60/36 24/61/36
f 20/48/37 19/55/37 24/62/37
f 21/56/38 20/48/38 24/62/38
f 22/63/39 21/64/39 24/61/39
f 23/60/40 22/63/40 24/61/40
f 25/65/41 26/66/41 27/67/41
f 26/66/42 25/65/42 30/68/42
f 25/65/43 27/67/43 28/69/43
f 25/65/44 28/69/44 29/70/44
f 25/65/45 29/70/45 30/68/45
f 26/71/46 30/72/46 35/73/46
f 27/74/47 26/75/47 31/76/47
f 28/77/48 27/78/48 32/79/48
f 29/80/49 28/81/49 33/82/49
f 30/83/50 29/80/50 34/84/50
f 26/75/51 35/85/51 31/76/51
f 27/74/52 31/76/52 32/86/52
f 28/77/53 32/79/53 33/87/53
f 29/80/54 33/82/54 34/84/54
f 30/72/55 34/88/55 35/73/55
f 31/76/56 35/85/56 36/89/56
f 32/79/57 31/90/57 36/91/57
f 33/87/58 32/79/58 36/91/58
f 34/92/59 33/87/59 36/91/59
f 35/93/60 34/94/60 36/95/60
f 37/96/61 38/97/61 39/98/61
f 38/97/62 37/96/62 42/99/62
f 37/96/63 39/98/63 40/100/63
f 37/96/64 40/100/64 41/101/64
f 37/96/65 41/101/65 42/99/65
f 38/102/66 42/103/66 47/104/66
f 39/105/67 38/106/67 43/107/67
f 40/108/68 39/109/68 44/110/68
f 41/111/69 40/108/69 45/112/69
f 42/113/70 41/114/70 46/115/70
f 38/106/71 47/116/71 43/107/71
f 39/105/72 43/107/72 44/117/72
f 40/108/73 44/110/73 45/112/73
f 41/114/74 45/118/74 46/115/74
f 42/103/75 46/119/75 47/104/75
f 43/120/76 47/121/76 48/122/76
f 44/123/77 43/120/77 48/122/77
f 45/112/78 44/110/78 48/124/78
f 46/115/79 45/118/79 48/125/79
f 47/121/80 46/126/80 48/122/80
f 49/127/81 50/128/81 51/129/81
f 50/128/82 49/127/82 54/130/82
f 49/131/83 51/132/83 52/133/83
f 49/131/84 52/133/84 53/134/84
f 49/127/85 53/135/85 54/130/85
f 50/136/86 54/137/86 59/138/86
f 51/139/87 50/140/87 55/141/87
f 52/142/88 51/139/88 56/143/88
f 53/134/89 52/133/89 57/144/89
f 54/145/90 53/146/90 58/147/90
f 50/136/91 59/138/91 55/148/91
f 51/139/92 55/141/92 56/143/92
f 52/133/93 56/149/93 57/144/93
f 53/146/94 57/150/94 58/147/94
f 54/145/95 58/147/95 59/151/95
f 55/148/96 59/138/96 60/152/96
f 56/143/97 55/141/97 60/153/97
f 57/154/98 56/155/98 60/156/98
f 58/157/99 57/154/99 60/156/99
f 59/158/100 58/157/100 60/156/100
f 61/159/101 62/160/101 63/161/101
f 62/160/102 61/159/102 66/162/102
f 61/159/103 63/161/103 64/163/103
f 61/159/104 64/163/104 65/164/104
f 61/159/105 65/164/105 66/162/105
f 62/165/106 66/166/106 71/167/106
f 63/168/107 62/169/107 67/170/107
f 64/171/108 63/172/108 68/173/108
f 65/174/109 64/171/109 69/175/109
f 66/176/110 65/177/110 70/178/110
f 62/165/111 71/167/111 67/179/111
f 63/168/112 67/170/112 68/180/112
f 64/171/113 68/173/113 69/175/113
f 65/177/114 69/181/114 70/178/114
f 66/166/115 70/182/115 71/167/115
f 67/179/116 71/167/116 72/183/116
f 68/180/117 67/170/117 72/184/117
f 69/175/118 68/173/118 72/185/118
f 70/186/119 69/187/119 72/188/119
f 71/189/120 70/186/120 72/188/120
f 73/190/121 74/191/121 75/192/121
f 74/191/122 73/190/122 78/193/122
f 73/190/123 75/192/123 76/194/123
f 73/190/124 76/194/124 77/195/124
f 73/190/125 77/195/125 78/193/125
f 74/196/126 78/197/126 83/198/126
f 75/199/127 74/200/127 79/201/127
f 76/202/128 75/203/128 80/204/128
f 77/205/129 76/206/129 81/207/129
f 78/208/130 77/205/130 82/209/130
f 74/200/131 83/210/131 79/201/131
f 75/199/132 79/201/132 80/211/132
f 76/202/133 80/204/133 81/212/133
f 77/205/134 81/207/134 82/209/134
f 78/197/135 82/213/135 83/198/135
f 79/201/136 83/210/136 84/214/136
f 80/211/137 79/201/137 84/214/137
f 81/212/138 80/204/138 84/215/138
f 82/209/139 81/207/139 84/216/139
f 83/217/140 82/218/140 84/219/140
f 85/220/141 86/221/141 87/222/141
f 86/223/142 85/224/142 90/225/142
f 85/220/143 87/222/143 88/226/143
f 85/227/144 88/228/144 89/229/144
f 85/224/145 89/230/145 90/225/145
f 86/223/146 90/225/146 95/231/146
f 87/222/147 86/221/147 91/232/147
f 88/226/148 87/222/148 92/233/148
f 89/234/149 88/235/149 93/236/149
f 90/225/150 89/230/150 94/237/150
f 86/223/151 95/231/151 91/238/151
f 87/222/152 91/232/152 92/233/152
f 88/235/153 92/239/153 93/236/153
f 89/240/154 93/241/154 94/242/154
f 90/225/155 94/237/155 95/231/155
f 91/243/156 95/244/156 96/245/156
f 92/246/157 91/243/157 96/245/157
f 93/236/158 92/239/158 96/247/158
f 94/242/159 93/241/159 96/248/159
f 95/249/160 94/242/160 96/248/160
f 97/250/161 98/251/161 99/252/161
f 98/251/162 97/250/162 102/253/162
f 97/250/163 99/252/163 100/254/163
f 97/250/164 100/254/164 101/255/164
f 97/250/165 101/255/165 102/253/165
f 98/256/166 102/257/166 107/258/166
f 99/259/167 98/256/167 103/260/167
f 100/261/168 99/262/168 104/263/168
f 101/264/169 100/265/169 105/266/169
f 102/267/170 101/268/170 106/269/170
f 98/256/171 107/258/171 103/260/171
f 99/262/172 103/270/172 104/263/172
f 100/265/173 104/271/173 105/266/173
f 101/264/174 105/266/174 106/272/174
f 102/267/175 106/269/175 107/273/175
f 103/260/176 107/258/176 108/274/176
f 104/263/177 103/270/177 108/275/177
f 105/276/178 104/277/178 108/278/178
f 106/279/179 105/276/179 108/278/179
f 107/280/180 106/279/180 108/278/180
